<svg xmlns="http://www.w3.org/2000/svg" width="500" height="500" style="width:100%;height:100%;content-visibility:visible"><defs><clipPath id="a"><path d="M0 0h500v500H0z"/></clipPath></defs><g clip-path="url(#a)"><g display="block"><path stroke-linecap="round" stroke-linejoin="round" stroke="#121331" stroke-width="12.04" d="M355.018 371.75V149.454h42.054V371.75M376.046 89.881l21.031 59.573h-42.062l21.031-59.573z" fill="none"/><path stroke-linecap="round" stroke-linejoin="round" stroke="#08A88A" stroke-width="12.04" d="M397.072 371.75v38.369h-42.054V371.75h42.054z" fill="none"/></g><g display="block"><path stroke-linecap="round" stroke-linejoin="round" stroke="#08A88A" stroke-width="12.04" d="M153.216 367.498v32.795C161 407 169.75 414 177.479 420c9.771-6.25 17.521-12.5 25.729-19.707 0-9.793 1.604-25.136 0-32.795" fill="none"/><path stroke-linecap="round" stroke-linejoin="round" stroke="#121331" stroke-width="12.04" d="M274.933 367.498h-172.01V95.193h172.01c15.773 0 28.56 12.787 28.56 28.56v215.185c0 15.773-12.787 28.56-28.56 28.56z" fill="none"/><path stroke-linecap="round" stroke-linejoin="round" stroke="#08A88A" stroke-width="12.04" d="M253.14 373.534V89.157M89.881 136.368h26.686M89.881 183.857h26.686M89.881 231.346h26.686M89.881 278.834h26.686M89.881 326.323h26.686" fill="none"/></g></g></svg>